<?xml version="1.0" encoding="UTF-8" standalone="no"?>
<!-- Created with Inkscape (http://www.inkscape.org/) -->

<svg
   width="122.48103"
   height="31.08744"
   viewBox="0 0 32.406437 8.2252189"
   version="1.1"
   id="svg20133"
   inkscape:version="1.1.2 (0a00cf5339, 2022-02-04, custom)"
   sodipodi:docname="banner.svg"
   xmlns:inkscape="http://www.inkscape.org/namespaces/inkscape"
   xmlns:sodipodi="http://sodipodi.sourceforge.net/DTD/sodipodi-0.dtd"
   xmlns="http://www.w3.org/2000/svg"
   xmlns:svg="http://www.w3.org/2000/svg">
  <sodipodi:namedview
     id="namedview20135"
     pagecolor="#ffffff"
     bordercolor="#999999"
     borderopacity="1"
     inkscape:pageshadow="0"
     inkscape:pageopacity="0"
     inkscape:pagecheckerboard="0"
     inkscape:document-units="px"
     showgrid="false"
     inkscape:zoom="2.9611953"
     inkscape:cx="0"
     inkscape:cy="20.937491"
     inkscape:window-width="1920"
     inkscape:window-height="1017"
     inkscape:window-x="-8"
     inkscape:window-y="-8"
     inkscape:window-maximized="1"
     inkscape:current-layer="g20128"
     units="px"
     fit-margin-top="0"
     fit-margin-left="0"
     fit-margin-right="0"
     fit-margin-bottom="0" />
  <defs
     id="defs20130" />
  <g
     inkscape:label="Layer 1"
     inkscape:groupmode="layer"
     id="layer1"
     transform="translate(-132.83288,-141.34948)">
    <g
       id="g20128"
       transform="matrix(0.67660371,0,0,0.67660371,127.27105,138.22124)"
       inkscape:export-filename="C:\Users\tedd0\Desktop\Design\Banner.png"
       inkscape:export-xdpi="120"
       inkscape:export-ydpi="120">
      <path
         id="path1849-4"
         style="fill:#15b477;fill-opacity:1;stroke:none;stroke-width:0.885993;stroke-linecap:round;stroke-linejoin:round;stroke-miterlimit:4;stroke-dasharray:none;stroke-opacity:1;stop-color:#000000"
         d="m 11.62124,4.7338991 a 4.4497472,4.4497472 0 0 0 -1.3e-4,1.216e-4 l -2.81e-4,2.184e-4 a 4.4497472,4.4497472 0 0 0 -1.04831,1.6622121 l -1.3e-4,1.945e-4 -1.3e-4,-1.945e-4 A 4.4497472,4.4497472 0 0 0 9.5239502,4.7342391 L 9.5236901,4.7340207 A 4.4497472,4.4497472 0 0 0 9.52356,4.7341784 l -2.818e-4,1.823e-4 A 4.4497472,4.4497472 0 0 0 8.4749907,6.3965726 L 8.474839,6.3967913 A 4.4497472,4.4497472 0 0 0 8.220218,7.8804629 c 0,2.4575111 1.992208,4.4497261 4.449722,4.4497261 2.457557,0 4.449743,-1.992215 4.449743,-4.4497261 A 4.4497472,4.4497472 0 0 0 16.865084,6.3967913 H 12.66994 l -1.3e-4,-2.187e-4 A 4.4497472,4.4497472 0 0 0 11.621522,4.7344336 Z M 9.756072,7.4423052 A 0.52433626,0.52433626 0 0 1 10.2804,7.9667022 0.52433626,0.52433626 0 0 1 9.756072,8.4910263 0.52433626,0.52433626 0 0 1 9.2317007,7.9667022 0.52433626,0.52433626 0 0 1 9.756072,7.4423052 Z m 1.632526,0 a 0.52433626,0.52433626 0 0 1 0.52435,0.524397 0.52433626,0.52433626 0 0 1 -0.52435,0.5243241 0.52433626,0.52433626 0 0 1 -0.524349,-0.5243241 0.52433626,0.52433626 0 0 1 0.524349,-0.524397 z m -3.16838,4.8880178 a 4.4497476,4.4497476 0 0 0 4.449722,4.449752 4.4497476,4.4497476 0 0 0 4.449743,-4.449752 H 15.420007 15.022415 A 2.3525531,2.3525531 0 0 1 12.66994,14.682911 2.3525531,2.3525531 0 0 1 10.317357,12.330323 H 9.9197864 Z" />
      <g
         aria-label="reencat"
         id="text4396"
         style="font-size:11.3682px;line-height:1.25;fill:#15b477;stroke-width:0.284202">
        <path
           d="M 20.895634,6.6106632 V 8.8310149 Q 20.67915,8.7088955 20.501521,8.7088955 q -0.566189,0 -0.566189,0.8659372 V 12.200398 H 17.859303 V 9.1751694 q 0,-1.1989899 0.655004,-1.9095024 0.655003,-0.7160634 1.748527,-0.7160634 0.244238,0 0.6328,0.06106 z"
           style="font-family:'Bauhaus 93';-inkscape-font-specification:'Bauhaus 93, '"
           id="path1761" />
        <path
           d="m 26.946092,9.7691134 h -3.147348 q -0.07216,-0.2386878 -0.07216,-0.4385194 0,-0.277544 0.09992,-0.5439862 h 1.054667 q -0.111018,-0.6161475 -0.69386,-0.6161475 -0.388561,0 -0.6328,0.3330527 -0.244239,0.3275019 -0.244239,0.8437336 0,0.5384353 0.233137,0.8714884 0.238688,0.333052 0.621699,0.333052 0.310849,0 0.599495,-0.310849 l 1.182337,1.421025 q -0.827081,0.649453 -1.837341,0.649453 -1.232295,0 -2.070478,-0.827081 -0.838183,-0.827081 -0.838183,-2.0482743 0,-1.2156425 0.843734,-2.0538253 0.849284,-0.8381827 2.08158,-0.8381827 1.20454,0 2.02052,0.8215301 0.82153,0.8159792 0.82153,2.0149691 0,0.1221193 -0.0222,0.3885615 z"
           style="font-family:'Bauhaus 93';-inkscape-font-specification:'Bauhaus 93, '"
           id="path1763" />
        <path
           d="M 33.24634,9.7691134 H 30.098991 Q 30.02683,9.5304256 30.02683,9.330594 q 0,-0.277544 0.09991,-0.5439862 h 1.054668 q -0.111018,-0.6161475 -0.69386,-0.6161475 -0.388562,0 -0.632801,0.3330527 -0.244238,0.3275019 -0.244238,0.8437336 0,0.5384353 0.233137,0.8714884 0.238687,0.333052 0.621698,0.333052 0.310849,0 0.599495,-0.310849 l 1.182337,1.421025 q -0.827081,0.649453 -1.837341,0.649453 -1.232295,0 -2.070478,-0.827081 -0.838182,-0.827081 -0.838182,-2.0482743 0,-1.2156425 0.843733,-2.0538253 0.849285,-0.8381827 2.08158,-0.8381827 1.204541,0 2.02052,0.8215301 0.82153,0.8159792 0.82153,2.0149691 0,0.1221193 -0.0222,0.3885615 z"
           style="font-family:'Bauhaus 93';-inkscape-font-specification:'Bauhaus 93, '"
           id="path1765" />
        <path
           d="M 39.041458,12.200398 H 36.965429 V 9.0752535 q 0,-0.4773756 -0.394113,-0.4773756 -0.388561,0 -0.388561,0.4773756 V 12.200398 H 34.106726 V 9.1141097 q 0,-1.0824214 0.716064,-1.8206883 0.716063,-0.7438178 1.754077,-0.7438178 1.187888,0 1.903952,0.8603862 0.560639,0.6716564 0.560639,1.8706463 z"
           style="font-family:'Bauhaus 93';-inkscape-font-specification:'Bauhaus 93, '"
           id="path1767" />
        <path
           d="m 43.648687,9.652545 2.059376,-0.077712 q -0.08881,1.1989903 -0.893691,1.9705623 -0.804878,0.771572 -1.95946,0.771572 -1.221194,0 -2.064927,-0.849285 -0.838183,-0.849284 -0.838183,-2.0815792 0,-1.1712355 0.849284,-2.0038674 0.849285,-0.8326318 2.037173,-0.8326318 1.038014,0 1.83179,0.6550037 0.793776,0.6550037 0.988056,1.6708146 l -2.103783,0.077712 q -0.271993,-0.3552563 -0.688309,-0.3552563 -0.355256,0 -0.582842,0.233137 -0.227586,0.2331369 -0.227586,0.5883931 0,0.3608072 0.238688,0.605046 0.244238,0.244239 0.605046,0.244239 0.527333,0 0.749368,-0.616148 z"
           style="font-family:'Bauhaus 93';-inkscape-font-specification:'Bauhaus 93, '"
           id="path1769" />
        <path
           d="m 49.688043,10.12437 v 2.14819 q -0.25534,0.04441 -0.466273,0.04441 -1.248948,0 -2.08158,-0.82153 -0.832632,-0.82153 -0.832632,-2.0593763 0,-1.2045408 0.838183,-2.0427235 0.843733,-0.8381828 2.048274,-0.8381828 1.343313,0 2.114885,0.7882249 0.777123,0.7826739 0.777123,2.1426393 V 12.200398 H 50.009994 V 9.6358923 q 0,-0.4385194 -0.216484,-0.6994107 -0.210933,-0.2608914 -0.57174,-0.2608914 -0.327502,0 -0.56619,0.2386878 -0.238688,0.2386878 -0.238688,0.5661897 0,0.3441545 0.216484,0.5661893 0.216485,0.222036 0.549537,0.222036 0.271993,0 0.50513,-0.144323 z"
           style="font-family:'Bauhaus 93';-inkscape-font-specification:'Bauhaus 93, '"
           id="path1771" />
        <path
           d="m 55.144559,4.6234485 v 2.1204358 h 0.932548 v 2.1925973 h -0.932548 q 0,0.6605546 0.205383,0.9103441 0.210933,0.2497893 0.766021,0.2497893 v 2.181496 q -0.160976,0.0056 -0.238688,0.0056 -0.704962,0 -1.332211,-0.327502 Q 53.923366,11.628658 53.545906,11.068019 53.06853,10.351956 53.06853,9.1696185 v -4.54617 z"
           style="font-family:'Bauhaus 93';-inkscape-font-specification:'Bauhaus 93, '"
           id="path1773" />
      </g>
    </g>
  </g>
</svg>
