<?xml version="1.0" encoding="UTF-8" standalone="no"?>
<!-- Created with Inkscape (http://www.inkscape.org/) -->

<svg
   width="1400"
   height="250"
   viewBox="0 0 370.41667 66.145833"
   version="1.1"
   id="svg1"
   xml:space="preserve"
   sodipodi:docname="banner.svg"
   inkscape:version="1.3 (0e150ed6c4, 2023-07-21)"
   xmlns:inkscape="http://www.inkscape.org/namespaces/inkscape"
   xmlns:sodipodi="http://sodipodi.sourceforge.net/DTD/sodipodi-0.dtd"
   xmlns="http://www.w3.org/2000/svg"
   xmlns:svg="http://www.w3.org/2000/svg"><sodipodi:namedview
     id="namedview1"
     pagecolor="#505050"
     bordercolor="#eeeeee"
     borderopacity="1"
     inkscape:showpageshadow="0"
     inkscape:pageopacity="0"
     inkscape:pagecheckerboard="0"
     inkscape:deskcolor="#505050"
     inkscape:zoom="0.38755346"
     inkscape:cx="777.95719"
     inkscape:cy="574.11434"
     inkscape:window-width="1920"
     inkscape:window-height="1009"
     inkscape:window-x="-8"
     inkscape:window-y="-8"
     inkscape:window-maximized="1"
     inkscape:current-layer="svg1" /><defs
     id="defs1" /><g
     id="g2"
     transform="translate(8.5555179,0.85076173)"><path
       id="path7-4-9-8-8-5-0"
       style="fill:#1cd78f;fill-opacity:1;stroke:none;stroke-width:6.53498;stroke-dasharray:none;stroke-opacity:1"
       d="M 7.644542,5e-5 C 4.23246,3.14411 1.823945,7.22519 0.720857,11.732 0.26003,13.55178 0.017821,15.42013 0,17.29742 c 0,13.01924 10.554192,23.57344 23.57351,23.57344 3.089822,0 6.149108,-0.61086 9.00401,-1.79253 v 1.79253 c -1.5e-4,4.97265 -4.031374,9.00376 -9.00402,9.00367 -4.972701,9e-5 -9.003871,-4.03102 -9.004064,-9.00367 H 0 c 0,13.01925 10.554192,23.57345 23.57351,23.57345 13.019232,0 23.573425,-10.5542 23.573425,-23.57345 v -21.30049 -2.27295 -2.3807 c 0,-1.91362 -1.628586,-3.18485 -3.184848,-3.18485 H 28.418315 C 27.314906,7.22493 24.906049,3.14396 21.493506,0 18.081221,3.14406 15.672556,7.22514 14.569436,11.73187 13.466016,7.22501 11.057159,3.14396 7.644542,0 Z m 1.790636,15.45634 c 1.759092,-6e-5 3.185104,1.426 3.18504,3.18503 -1.39e-4,1.75895 -1.426151,3.18469 -3.18504,3.18469 -1.758751,-2.1e-4 -3.18442,-1.42594 -3.184623,-3.18469 -6.4e-5,-1.75883 1.425669,-3.18483 3.184623,-3.18503 z m 10.26842,0 c 1.759093,-6e-5 3.185094,1.426 3.185019,3.18503 -1.28e-4,1.75895 -1.426129,3.18469 -3.185019,3.18469 -1.758761,-2.1e-4 -3.18443,-1.42594 -3.184623,-3.18469 -7.4e-5,-1.75883 1.425734,-3.18483 3.184623,-3.18503 z" /><g
       id="g1"
       transform="matrix(1.0703439,0,0,1.0703439,-8.7e-5,-1.8e-4)"
       style="stroke-width:0.934279"><path
         id="path7-4-9-8-8-9-3-2"
         style="fill:#1cd78f;fill-opacity:1;stroke:none;stroke-width:6.1055;stroke-dasharray:none;stroke-opacity:1"
         d="m 112.10723,10.96089 5.1e-4,22.02449 h -8.4124 v -5.2e-4 c -8e-5,-4.64586 3.76608,-8.41171 8.41189,-8.41189 z m 0,0 c -12.163529,0 -22.023979,9.86037 -22.023979,22.02397 v 5.2e-4 5.19968 c 2.8e-4,12.16329 9.86062,22.02398 22.023979,22.02398 H 125.7188 V 46.59695 h -13.61157 c -4.64564,-1.4e-4 -8.41168,-3.76631 -8.41189,-8.41189 h 19.04845 c 1.64315,-1.9e-4 2.97534,-1.33237 2.97553,-2.97553 v -2.22415 l -5.2e-4,-19.04897 c 6e-5,-1.6432 -1.33218,-2.97533 -2.97553,-2.97552 z" /><path
         id="path7-4-9-8-8-2-8-5"
         style="fill:#1cd78f;fill-opacity:1;stroke:none;stroke-width:6.1055;stroke-dasharray:none;stroke-opacity:1"
         d="m 52.223621,10.96099 c -1.64335,1.9e-4 -2.97559,1.33233 -2.97553,2.97552 v 46.27263 h 13.61157 V 24.57307 c 4.6458,1.4e-4 8.41197,3.76662 8.41189,8.41241 v 5.19968 h 13.61209 v -5.19968 c 0,-12.16354 -9.86045,-22.02449 -22.02398,-22.02449 z" /><path
         id="path7-4-9-8-8-2-1-93-3"
         style="fill:#1cd78f;fill-opacity:1;stroke:none;stroke-width:6.1055;stroke-dasharray:none;stroke-opacity:1"
         d="m 174.72924,10.7702 c -1.64334,1.9e-4 -2.97559,1.33232 -2.97553,2.97553 v 46.27263 h 13.61158 V 24.38229 c 4.6458,1.4e-4 8.41197,3.76661 8.41189,8.41241 v 27.22366 h 13.61209 V 32.7947 c 0,-12.16355 -9.86044,-22.0245 -22.02398,-22.0245 z" /><path
         id="rect4-0-8-9-1"
         style="fill:#c3bacf;fill-opacity:1;stroke:none;stroke-width:9.88776;stroke-linecap:round;stroke-linejoin:round"
         d="m 256.39971,10.7702 c -1.64335,1.9e-4 -2.97559,1.33232 -2.97553,2.97552 v 46.27263 h 13.61157 V 37.99437 h 8.41189 v 22.02398 h 13.61209 V 32.79469 c 0,-12.16355 -9.86043,-22.02449 -22.02398,-22.02449 z m 10.63604,13.61208 c 4.64581,1.4e-4 8.41197,3.76662 8.41189,8.41241 h -8.41189 z" /><path
         id="path7-4-9-8-8-9-2-70-4"
         style="fill:#1cd78f;fill-opacity:1;stroke:none;stroke-width:6.1055;stroke-dasharray:none;stroke-opacity:1"
         d="m 152.94246,10.96089 5.2e-4,22.02449 h -8.41241 v -5.2e-4 c -8e-5,-4.64586 3.76608,-8.41171 8.41189,-8.41189 z m 0,0 c -12.16353,0 -22.02398,9.86037 -22.02398,22.02397 v 5.2e-4 5.19968 c 2.8e-4,12.16329 9.86062,22.02398 22.02398,22.02398 h 13.61157 V 46.59695 h -13.61157 c -4.64564,-1.4e-4 -8.41168,-3.76631 -8.41189,-8.41189 h 19.04845 c 1.64316,-1.9e-4 2.97534,-1.33237 2.97553,-2.97553 v -2.22415 l -5.2e-4,-19.04897 c 6e-5,-1.6432 -1.33218,-2.97533 -2.97553,-2.97552 z" /><path
         id="path7-4-9-8-8-9-2-7-8-4"
         style="fill:#c3bacf;fill-opacity:1;stroke:none;stroke-width:6.1055;stroke-dasharray:none;stroke-opacity:1"
         d="m 234.61293,10.7702 c -12.16353,0 -22.02398,9.86037 -22.02398,22.02397 v 5.2e-4 5.19968 c 2.8e-4,12.16329 9.86062,22.02398 22.02398,22.02398 h 10.63604 c 1.64348,6e-5 2.97559,-1.33213 2.97553,-2.97553 V 46.40626 h -13.61157 c -4.64564,-1.4e-4 -8.41168,-3.76631 -8.41189,-8.41189 v -5.19968 -5.1e-4 c -8e-5,-4.64587 3.76608,-8.41172 8.41189,-8.4119 H 248.2245 V 13.74573 c 6e-5,-1.6434 -1.33205,-2.97559 -2.97553,-2.97552 z" /><path
         id="path7-4-9-8-8-2-1-6-85-5"
         style="fill:#c3bacf;fill-opacity:1;stroke:none;stroke-width:6.1055;stroke-dasharray:none;stroke-opacity:1"
         d="m 294.25942,10.7702 v 13.61208 h 2.69544 c 4.6458,1.4e-4 8.41197,3.76662 8.41189,8.41241 v 27.22366 h 13.61209 V 32.79469 c 0,-2.98001 -0.59504,-5.81996 -1.6676,-8.41241 h 12.77493 V 10.7702 h -33.13131 z" /></g></g></svg>
