<?xml version="1.0" encoding="UTF-8" standalone="no"?>
<!-- Created with Inkscape (http://www.inkscape.org/) -->

<svg
   width="1400"
   height="250"
   viewBox="0 0 370.41667 66.145833"
   version="1.1"
   id="svg1"
   xml:space="preserve"
   sodipodi:docname="banner.svg"
   inkscape:version="1.3 (0e150ed6c4, 2023-07-21)"
   xmlns:inkscape="http://www.inkscape.org/namespaces/inkscape"
   xmlns:sodipodi="http://sodipodi.sourceforge.net/DTD/sodipodi-0.dtd"
   xmlns="http://www.w3.org/2000/svg"
   xmlns:svg="http://www.w3.org/2000/svg"><sodipodi:namedview
     id="namedview1"
     pagecolor="#505050"
     bordercolor="#eeeeee"
     borderopacity="1"
     inkscape:showpageshadow="0"
     inkscape:pageopacity="0"
     inkscape:pagecheckerboard="0"
     inkscape:deskcolor="#505050"
     inkscape:zoom="0.85714286"
     inkscape:cx="859.83333"
     inkscape:cy="154.58333"
     inkscape:window-width="1920"
     inkscape:window-height="1009"
     inkscape:window-x="-8"
     inkscape:window-y="-8"
     inkscape:window-maximized="1"
     inkscape:current-layer="svg1" /><defs
     id="defs1" /><path
     id="path7-4-9-8-8-5-0"
     style="fill:#1cd78f;fill-opacity:1;stroke:none;stroke-width:6.53498;stroke-dasharray:none;stroke-opacity:1"
     d="M 16.20006,0.85081173 C 12.787978,3.9948717 10.379463,8.0759517 9.2763749,12.582762 c -0.460827,1.81978 -0.703036,3.68813 -0.720857,5.56542 0,13.01924 10.5541921,23.57344 23.5735101,23.57344 3.089822,0 6.149108,-0.61086 9.00401,-1.79253 v 1.79253 c -1.5e-4,4.97265 -4.031374,9.00376 -9.00402,9.00367 -4.972701,9e-5 -9.003871,-4.03102 -9.004064,-9.00367 H 8.5555179 c 0,13.01925 10.5541921,23.57345 23.5735101,23.57345 13.019232,0 23.573425,-10.5542 23.573425,-23.57345 v -21.30049 -2.27295 -2.3807 c 0,-1.91362 -1.628586,-3.18485 -3.184848,-3.18485 H 36.973833 C 35.870424,8.0756917 33.461567,3.9947217 30.049024,0.85076173 26.636739,3.9948217 24.228074,8.0759017 23.124954,12.582632 22.021534,8.0757717 19.612677,3.9947217 16.20006,0.85076173 Z M 17.990696,16.307152 c 1.759092,-6e-5 3.185104,1.426 3.18504,3.18503 -1.39e-4,1.75895 -1.426151,3.18469 -3.18504,3.18469 -1.758751,-2.1e-4 -3.18442,-1.42594 -3.184623,-3.18469 -6.4e-5,-1.75883 1.425669,-3.18483 3.184623,-3.18503 z m 10.26842,0 c 1.759093,-6e-5 3.185094,1.426 3.185019,3.18503 -1.28e-4,1.75895 -1.426129,3.18469 -3.185019,3.18469 -1.758761,-2.1e-4 -3.18443,-1.42594 -3.184623,-3.18469 -7.4e-5,-1.75883 1.425734,-3.18483 3.184623,-3.18503 z" /><path
     id="path7-4-9-8-8-9-3-2"
     style="fill:#1cd78f;fill-opacity:1;stroke:none;stroke-width:6.53499;stroke-dasharray:none;stroke-opacity:1"
     d="m 128.54872,12.582503 5.5e-4,23.573779 h -9.00416 v -5.57e-4 c -9e-5,-4.972667 4.031,-9.003422 9.00361,-9.003615 z m 0,0 c -13.01916,0 -23.57323,10.553987 -23.57323,23.573222 v 5.57e-4 5.565446 c 3e-4,13.018903 10.55425,23.573232 23.57323,23.573232 h 14.56906 V 50.725343 h -14.56906 c -4.97243,-1.5e-4 -9.00339,-4.031247 -9.00361,-9.003615 h 20.38839 c 1.75873,-2.04e-4 3.18463,-1.426094 3.18484,-3.184841 v -2.380605 l -5.6e-4,-20.388949 c 7e-5,-1.758789 -1.42589,-3.184626 -3.18484,-3.18483 z" /><path
     id="path7-4-9-8-8-2-8-5"
     style="fill:#1cd78f;fill-opacity:1;stroke:none;stroke-width:6.53499;stroke-dasharray:none;stroke-opacity:1"
     d="m 64.452665,12.582611 c -1.75895,2.03e-4 -3.184905,1.426051 -3.18484,3.184829 v 49.527627 h 14.569061 v -38.14285 c 4.972603,1.5e-4 9.0037,4.031579 9.003615,9.004172 v 5.565446 h 14.569617 v -5.565446 c 0,-13.019171 -10.554072,-23.573778 -23.573232,-23.573778 z" /><path
     id="path7-4-9-8-8-2-1-93-3"
     style="fill:#1cd78f;fill-opacity:1;stroke:none;stroke-width:6.53499;stroke-dasharray:none;stroke-opacity:1"
     d="m 195.57581,12.3784 c -1.75894,2.03e-4 -3.18491,1.42604 -3.18484,3.18484 v 49.527627 h 14.56907 v -38.14285 c 4.9726,1.5e-4 9.0037,4.031568 9.00361,9.004172 v 29.138678 h 14.56962 V 35.952189 c 0,-13.019182 -10.55406,-23.573789 -23.57323,-23.573789 z" /><path
     id="rect4-0-8-9-1"
     style="fill:#b0b1ad;fill-opacity:1;stroke:none;stroke-width:10.5833;stroke-linecap:round;stroke-linejoin:round"
     d="m 282.9913,12.3784 c -1.75895,2.03e-4 -3.18491,1.42604 -3.18484,3.184829 v 49.527628 h 14.56906 V 41.517624 h 9.00361 v 23.573233 h 14.56962 V 35.952178 c 0,-13.019181 -10.55405,-23.573778 -23.57323,-23.573778 z m 11.38422,14.569606 c 4.97261,1.5e-4 9.0037,4.031579 9.00361,9.004172 h -9.00361 z" /><path
     id="path7-4-9-8-8-9-2-70-4"
     style="fill:#1cd78f;fill-opacity:1;stroke:none;stroke-width:6.53499;stroke-dasharray:none;stroke-opacity:1"
     d="m 172.25646,12.582503 5.6e-4,23.573779 h -9.00418 v -5.57e-4 c -8e-5,-4.972667 4.03101,-9.003422 9.00362,-9.003615 z m 0,0 c -13.01916,0 -23.57323,10.553987 -23.57323,23.573222 v 5.57e-4 5.565446 c 3e-4,13.018903 10.55425,23.573232 23.57323,23.573232 h 14.56906 V 50.725343 h -14.56906 c -4.97243,-1.5e-4 -9.00339,-4.031247 -9.00362,-9.003615 h 20.3884 c 1.75874,-2.04e-4 3.18463,-1.426094 3.18484,-3.184841 v -2.380605 l -5.6e-4,-20.388949 c 7e-5,-1.758789 -1.42589,-3.184626 -3.18484,-3.18483 z" /><path
     id="path7-4-9-8-8-9-2-7-8-4"
     style="fill:#b0b1ad;fill-opacity:1;stroke:none;stroke-width:6.53499;stroke-dasharray:none;stroke-opacity:1"
     d="m 259.67195,12.3784 c -13.01916,0 -23.57323,10.553986 -23.57323,23.573222 v 5.56e-4 5.565446 c 3e-4,13.018903 10.55425,23.573233 23.57323,23.573233 h 11.38422 c 1.75909,6.4e-5 3.1849,-1.425838 3.18484,-3.184841 V 50.521239 h -14.56906 c -4.97243,-1.5e-4 -9.00339,-4.031247 -9.00362,-9.003615 v -5.565446 -5.46e-4 c -8e-5,-4.972678 4.031,-9.003433 9.00362,-9.003626 h 14.56906 V 15.56324 c 6e-5,-1.759003 -1.42575,-3.184905 -3.18484,-3.18483 z" /><path
     id="path7-4-9-8-8-2-1-6-85-5"
     style="fill:#b0b1ad;fill-opacity:1;stroke:none;stroke-width:6.53499;stroke-dasharray:none;stroke-opacity:1"
     d="m 323.51421,12.3784 v 14.569606 h 2.88504 c 4.97261,1.5e-4 9.0037,4.031579 9.00362,9.004172 v 29.138679 h 14.56962 V 35.952178 c 0,-3.189635 -0.6369,-6.229359 -1.78491,-9.004172 h 13.67357 V 12.3784 h -35.4619 z" /></svg>
